
 XXX Duology 2002 2005 Blu-ray Movies

----------------------------------------------------------------------------

XXX 1 2002

Storyline:
Xander Cage is your standard adrenaline junkie with no fear and a lousy attitude. When the US Government "recruits" him to go on a mission, he's not exactly thrilled. His mission: to gather information on an organization that may just be planning the destruction of the world, led by the nihilistic Yorgi.

More Movie info:  http://www.imdb.com/title/tt0295701/

Genre                            : Action | Adventure | Crime
Star Actors                      : Vin Diesel, Asia Argento and Samuel L. Jackson
Source                           : Blu-ray
Container                        : Mkv
Format                           : Matroska
File size                        : 2.24 GiB
Duration                         : 2h 4mn
Overall bit rate                 : 2 587 Kbps
Encoded date                     : UTC 2011-05-15 19:56:22
Writing application              : mkvmerge v4.3.0 ('Escape from the Island') built on Sep  5 2010 10:30:51
Writing library                  : libebml v1.0.0 + libmatroska v1.0.0

Video
ID                               : 1
Format                           : AVC
Format/Info                      : Advanced Video Codec
Format profile                   : High@L3.1
Format settings, CABAC           : Yes
Format settings, ReFrames        : 5 frames
Codec ID                         : V_MPEG4/ISO/AVC
Duration                         : 2h 4mn
Bit rate                         : 2 201 Kbps
Width                            : 1 280 pixels
Height                           : 528 pixels
Display aspect ratio             : 2.40:1
Frame rate                       : 23.976 fps
Color space                      : YUV
Chroma subsampling               : 4:2:0
Bit depth                        : 8 bits
Scan type                        : Progressive
Bits/(Pixel*Frame)               : 0.136
Stream size                      : 1.87 GiB (83%)
Writing library                  : x264 core 105 r1724 b02df7b
Encoding settings                : cabac=1 / ref=5 / deblock=1:-1:-1 / analyse=0x3:0x113 / me=umh / subme=8 / psy=1 / psy_rd=1.00:0.15 / mixed_ref=1 / me_range=16 / chroma_me=1 / trellis=1 / 8x8dct=1 / cqm=0 / deadzone=21,11 / fast_pskip=1 / chroma_qp_offset=-3 / threads=9 / sliced_threads=0 / nr=0 / decimate=1 / interlaced=0 / constrained_intra=0 / bframes=3 / b_pyramid=2 / b_adapt=2 / b_bias=0 / direct=3 / weightb=1 / open_gop=0 / weightp=2 / keyint=250 / keyint_min=23 / scenecut=40 / intra_refresh=0 / rc_lookahead=50 / rc=2pass / mbtree=1 / bitrate=2201 / ratetol=1.0 / qcomp=0.60 / qpmin=10 / qpmax=51 / qpstep=4 / cplxblur=20.0 / qblur=0.5 / ip_ratio=1.40 / aq=1:1.00

Audio
ID                               : 2
Format                           : AC-3
Format/Info                      : Audio Coding 3
Mode extension                   : CM (complete main)
Codec ID                         : A_AC3
Duration                         : 2h 4mn
Bit rate mode                    : Constant
Bit rate                         : 384 Kbps
Channel(s)                       : 6 channels
Channel positions                : Front: L C R, Side: L R, LFE
Sampling rate                    : 48.0 KHz
Bit depth                        : 16 bits
Compression mode                 : Lossy
Stream size                      : 341 MiB (15%)
Language                         : English

Subtitles: English (.srt file)

----------------------------------------------------------------

XXX 2 2005 State of the Union

Storyline:
Agent Augustus Gibbons has selected an imprisoned former US Navy SEAL Darius Stone, a new agent in the XXX program, travels to Washington D.C., where they track a splinter faction of the U.S. military that attempts to overthrow the U.S. government and assassinate the President, led by Secretary of Defense and former 4-Star General George Deckert, Stone's former commanding officer whom he once led a mutiny against. But he's been targeted for assassination by a radical splinter group of dissenters deep within the United States government. The new XXX agent must uncover the insurgents from within. It is the nation's only hope to stop the first coup d'etat in American history.

More Movie info:  http://www.imdb.com/title/tt0329774/

Genre                            : Action | Crime | Adventure
Star Actors                      : Ice Cube, Samuel L. Jackson and Willem Dafoe
Source                           : Bluray
Container                        : Mkv
Format                           : Matroska
File size                        : 1.82 GiB
Duration                         : 1h 41mn
Overall bit rate                 : 2 585 Kbps
Encoded date                     : UTC 2011-05-15 15:27:59
Writing application              : mkvmerge v4.3.0 ('Escape from the Island') built on Sep  5 2010 10:30:51
Writing library                  : libebml v1.0.0 + libmatroska v1.0.0

Video
ID                               : 1
Format                           : AVC
Format/Info                      : Advanced Video Codec
Format profile                   : High@L3.1
Format settings, CABAC           : Yes
Format settings, ReFrames        : 5 frames
Format settings, GOP             : M=1, N=48
Codec ID                         : V_MPEG4/ISO/AVC
Duration                         : 1h 40mn
Bit rate                         : 2 200 Kbps
Width                            : 1 280 pixels
Height                           : 544 pixels
Display aspect ratio             : 2.35:1
Frame rate                       : 23.976 fps
Color space                      : YUV
Chroma subsampling               : 4:2:0
Bit depth                        : 8 bits
Scan type                        : Progressive
Bits/(Pixel*Frame)               : 0.132
Stream size                      : 1.52 GiB (83%)
Writing library                  : x264 core 105 r1724 b02df7b
Encoding settings                : cabac=1 / ref=5 / deblock=1:-1:-1 / analyse=0x3:0x113 / me=umh / subme=8 / psy=1 / psy_rd=1.00:0.15 / mixed_ref=1 / me_range=16 / chroma_me=1 / trellis=1 / 8x8dct=1 / cqm=0 / deadzone=21,11 / fast_pskip=1 / chroma_qp_offset=-3 / threads=9 / sliced_threads=0 / nr=0 / decimate=1 / interlaced=0 / constrained_intra=0 / bframes=3 / b_pyramid=2 / b_adapt=2 / b_bias=0 / direct=3 / weightb=1 / open_gop=0 / weightp=2 / keyint=250 / keyint_min=23 / scenecut=40 / intra_refresh=0 / rc_lookahead=50 / rc=2pass / mbtree=1 / bitrate=2200 / ratetol=1.0 / qcomp=0.60 / qpmin=10 / qpmax=51 / qpstep=4 / cplxblur=20.0 / qblur=0.5 / ip_ratio=1.40 / aq=1:1.00

Audio
ID                               : 2
Format                           : AC-3
Format/Info                      : Audio Coding 3
Mode extension                   : CM (complete main)
Codec ID                         : A_AC3
Duration                         : 1h 41mn
Bit rate mode                    : Constant
Bit rate                         : 384 Kbps
Channel(s)                       : 6 channels
Channel positions                : Front: L C R, Side: L R, LFE
Sampling rate                    : 48.0 KHz
Bit depth                        : 16 bits
Compression mode                 : Lossy
Stream size                      : 277 MiB (15%)
Language                         : English

Subtitles: English (.srt file)

---------------------------------------------------------------

More Subtitles: 
http://www.sub-titles.net 
http://subscene.com/

Screenshot included in torrent.

My torrents:  
http://thepiratebay.org/user/PetaFOX
